# File created by Blade
# Date/Time:  Thu Jan 22 19:34:15 2015
# Frame Rate: 120.000 fps
#------------------------------------------------------
:FULLY-SPECIFIED
:DEGREES
672
root -13.780544 14.660913 -9.580345 25.639341 -28.940642 23.952324
RightUpLeg -127.676651 -22.589736 -3.831668
RightLeg 136.491607 -0.000000 -0.000000
RightFoot -45.640856 -9.108605 5.984529
RightToeBase -1.302107 -0.000000 0.000000
LeftUpLeg -12.420873 35.265987 29.721948
LeftLeg 6.553776 -0.000000 -0.000000
LeftFoot -8.286518 13.049529 -49.083090
LeftToeBase 20.076162 -0.000000 -0.000000
Spine 15.288568 9.476050 28.920861
RightShoulder -5.040734 0.325537 -10.652435
RightArm 18.056119 32.482861 77.145165
RightForeArm -19.727291 -0.000000 31.851970
RightHand 27.789330 -0.000000 -87.756775
RightHandThumb1 -24.326973 -0.000000 -32.862282
LeftShoulder -27.227203 -3.883572 49.589672
LeftArm 4.454651 -41.607209 -2.958544
LeftForeArm 4.506230 -0.000000 6.755515
LeftHand -1.873352 0.000000 -4.382042
LeftHandThumb1 -26.253704 0.000000 33.147579
Head -21.874238 26.009391 4.828584
673
root -13.786996 14.655250 -9.570862 25.501017 -28.856108 24.041793
RightUpLeg -127.581729 -22.689779 -3.935294
RightLeg 136.588929 -0.000000 -0.000000
RightFoot -45.611272 -9.104116 5.984571
RightToeBase -1.460222 -0.000000 0.000000
LeftUpLeg -12.374085 35.199281 29.695384
LeftLeg 6.521531 -0.000000 -0.000000
LeftFoot -8.175228 12.991944 -48.992096
LeftToeBase 20.074405 -0.000000 -0.000000
Spine 15.229686 9.530475 28.985148
RightShoulder -5.056470 0.355392 -10.705017
RightArm 17.882893 32.858881 77.243409
RightForeArm -20.081216 -0.000000 31.916138
RightHand 27.663122 -0.000000 -87.802845
RightHandThumb1 -24.326973 -0.000000 -32.862282
LeftShoulder -27.241002 -4.144941 49.861589
LeftArm 4.703754 -42.149169 -2.768622
LeftForeArm 4.324302 0.000000 6.805702
LeftHand -1.781741 -0.000000 -4.099669
LeftHandThumb1 -26.253704 0.000000 33.147579
Head -21.461326 25.985458 5.102122
674
root -13.792450 14.648148 -9.561505 25.383863 -28.755395 24.135738
RightUpLeg -127.516356 -22.810551 -4.023041
RightLeg 136.685850 -0.000000 -0.000000
RightFoot -45.599992 -9.130014 6.065701
RightToeBase -1.512148 -0.000000 0.000000
LeftUpLeg -12.362343 35.172991 29.640997
LeftLeg 6.472542 -0.000000 -0.000000
LeftFoot -8.042544 12.898495 -48.910272
LeftToeBase 20.010778 -0.000000 -0.000000
Spine 15.133288 9.471849 29.017119
RightShoulder -4.968522 0.369057 -10.788266
RightArm 17.698253 33.153855 77.311687
RightForeArm -20.243238 -0.000000 31.943878
RightHand 27.797953 -0.000000 -87.892267
RightHandThumb1 -24.326973 -0.000000 -32.862282
LeftShoulder -27.294864 -4.400928 50.155058
LeftArm 4.912811 -42.640153 -2.512771
LeftForeArm 4.212589 -0.000000 6.803405
LeftHand -1.610530 0.000000 -3.823557
LeftHandThumb1 -26.253704 0.000000 33.147579
Head -21.033900 26.078657 5.390947
675
root -13.798016 14.640204 -9.552269 25.232590 -28.662271 24.229128
RightUpLeg -127.420088 -22.912642 -4.120038
RightLeg 136.787580 -0.000000 -0.000000
RightFoot -45.577596 -9.159205 6.070115
RightToeBase -1.669958 -0.000000 0.000000
LeftUpLeg -12.306050 35.209803 29.593280
LeftLeg 6.403184 -0.000000 -0.000000
LeftFoot -7.867861 12.778062 -48.791578
LeftToeBase 20.024009 -0.000000 -0.000000
Spine 15.100916 9.474412 29.054312
RightShoulder -4.952485 0.377621 -10.829638
RightArm 17.543437 33.466254 77.371629
RightForeArm -20.381586 0.000000 31.997418
RightHand 27.869607 -0.000000 -88.021759
RightHandThumb1 -24.326973 -0.000000 -32.862282
LeftShoulder -27.371556 -4.737336 50.478991
LeftArm 5.207660 -43.105752 -2.324102
LeftForeArm 4.107001 -0.000000 6.815606
LeftHand -1.537357 -0.000000 -3.615135
LeftHandThumb1 -26.253704 0.000000 33.147579
Head -20.697060 26.112591 5.708147
676
root -13.802464 14.632142 -9.544515 25.099848 -28.553795 24.339906
RightUpLeg -127.349836 -23.051643 -4.227201
RightLeg 136.883873 -0.000000 -0.000000
RightFoot -45.574456 -9.142289 6.112636
RightToeBase -1.767033 -0.000000 0.000000
LeftUpLeg -12.296415 35.248184 29.509891
LeftLeg 6.335920 -0.000000 -0.000000
LeftFoot -7.687438 12.654992 -48.618131
LeftToeBase 20.000301 -0.000000 -0.000000
Spine 15.041642 9.516546 29.060919
RightShoulder -4.982553 0.309593 -10.835570
RightArm 17.450181 33.747653 77.440292
RightForeArm -20.480776 -0.000000 32.078292
RightHand 27.862046 -0.000000 -88.070282
RightHandThumb1 -24.326973 -0.000000 -32.862282
LeftShoulder -27.439275 -5.098071 50.824510
LeftArm 5.565245 -43.599024 -2.150831
LeftForeArm 4.025574 -0.000000 6.777104
LeftHand -1.473979 -0.000000 -3.378607
LeftHandThumb1 -26.253704 0.000000 33.147579
Head -20.398854 26.125461 6.091646
